<svg width="7" height="8" viewBox="0 0 7 8" fill="none" xmlns="http://www.w3.org/2000/svg">
<path d="M0.380204 2.96055H1.79318V7.13511H0.380204V2.96055ZM1.09532 0.951111C0.6157 0.951111 0.298828 1.2629 0.298828 1.67174C0.298828 2.07169 0.602959 2.39197 1.07806 2.39197H1.08669C1.57906 2.39197 1.8873 2.07169 1.88319 1.67174C1.87867 1.2629 1.57906 0.951111 1.09532 0.951111V0.951111ZM5.25205 2.86349C4.50036 2.86349 4.16581 3.2687 3.98046 3.5546V2.96055H2.572C2.572 2.96055 2.58926 3.35241 2.572 7.13511H3.98046V4.8054C3.98046 4.67922 3.99361 4.55669 4.02731 4.46449C4.13047 4.21579 4.36103 3.959 4.75147 3.959C5.26027 3.959 5.46577 4.34236 5.46577 4.90245V7.13511H6.87463V4.74231C6.87463 3.46159 6.18089 2.86349 5.25205 2.86349V2.86349Z" fill="#1670F8"/>
</svg>
