<svg width="8" height="8" viewBox="0 0 8 8" fill="none" xmlns="http://www.w3.org/2000/svg">
<path d="M4.03035 1.84454C3.51673 1.84454 3.02415 2.05013 2.66097 2.41607C2.29778 2.78201 2.09375 3.27833 2.09375 3.79584C2.09375 4.31336 2.29778 4.80968 2.66097 5.17562C3.02415 5.54156 3.51673 5.74714 4.03035 5.74714C4.54397 5.74714 5.03655 5.54156 5.39973 5.17562C5.76292 4.80968 5.96695 4.31336 5.96695 3.79584C5.96695 3.27833 5.76292 2.78201 5.39973 2.41607C5.03655 2.05013 4.54397 1.84454 4.03035 1.84454ZM4.03035 5.06309C3.69668 5.06309 3.37667 4.92953 3.14072 4.6918C2.90478 4.45406 2.77223 4.13163 2.77223 3.79542C2.77223 3.45921 2.90478 3.13678 3.14072 2.89904C3.37667 2.66131 3.69668 2.52775 4.03035 2.52775C4.36402 2.52775 4.68403 2.66131 4.91997 2.89904C5.15592 3.13678 5.28847 3.45921 5.28847 3.79542C5.28847 4.13163 5.15592 4.45406 4.91997 4.6918C4.68403 4.92953 4.36402 5.06309 4.03035 5.06309Z" fill="#1670F8"/>
<path d="M6.04328 2.22763C6.29263 2.22763 6.49476 2.02396 6.49476 1.77272C6.49476 1.52148 6.29263 1.31781 6.04328 1.31781C5.79393 1.31781 5.5918 1.52148 5.5918 1.77272C5.5918 2.02396 5.79393 2.22763 6.04328 2.22763Z" fill="#1670F8"/>
<path d="M7.60396 1.31071C7.50701 1.05844 7.35884 0.829337 7.16895 0.638079C6.97906 0.446822 6.75164 0.29762 6.50122 0.200025C6.20819 0.0891913 5.89862 0.0292615 5.58569 0.0227876C5.18237 0.00506388 5.05464 0 4.03189 0C3.00914 0 2.87806 -4.28408e-08 2.47809 0.0227876C2.1654 0.0289305 1.85605 0.0888725 1.5634 0.200025C1.31292 0.297506 1.08543 0.446668 0.895526 0.63794C0.705622 0.829212 0.557498 1.05837 0.460656 1.31071C0.350635 1.60594 0.291293 1.91789 0.285172 2.23319C0.267163 2.63915 0.261719 2.76786 0.261719 3.79879C0.261719 4.8293 0.261719 4.96054 0.285172 5.36439C0.291455 5.68004 0.350507 5.99147 0.460656 6.28729C0.55777 6.53954 0.706038 6.7686 0.895987 6.95985C1.08594 7.15109 1.31339 7.30031 1.56381 7.39797C1.85591 7.51326 2.16539 7.57748 2.47892 7.58787C2.88224 7.60559 3.00998 7.61108 4.03273 7.61108C5.05547 7.61108 5.18656 7.61108 5.58653 7.58787C5.89943 7.58146 6.20899 7.52167 6.50206 7.41106C6.75241 7.31323 6.97977 7.1639 7.16964 6.97259C7.35951 6.78128 7.50771 6.55219 7.6048 6.29995C7.71495 6.00455 7.774 5.69312 7.78028 5.37747C7.79829 4.97151 7.80374 4.8428 7.80374 3.81187C7.80374 2.78094 7.80374 2.65012 7.78028 2.24627C7.77541 1.92652 7.71576 1.61001 7.60396 1.31071ZM7.09385 5.33316C7.09114 5.57635 7.04709 5.81728 6.96359 6.04548C6.9007 6.20958 6.80441 6.3586 6.68092 6.48295C6.55744 6.60731 6.40948 6.70424 6.24658 6.76751C6.02261 6.85126 5.78604 6.89565 5.54716 6.89875C5.14929 6.91732 5.03705 6.92196 4.01681 6.92196C2.99574 6.92196 2.89146 6.92196 2.48604 6.89875C2.24729 6.89581 2.01083 6.85141 1.78704 6.76751C1.62357 6.70463 1.47503 6.60787 1.35101 6.4835C1.22699 6.35912 1.13027 6.2099 1.0671 6.04548C0.98478 5.81974 0.940748 5.58164 0.936848 5.34118C0.918839 4.94028 0.914651 4.82719 0.914651 3.79921C0.914651 2.77081 0.914651 2.66573 0.936848 2.25682C0.939555 2.01376 0.983611 1.77297 1.0671 1.54492C1.19484 1.21197 1.4566 0.949908 1.78704 0.822466C2.01094 0.73897 2.24733 0.694586 2.48604 0.691226C2.88434 0.67308 2.99616 0.668016 4.01681 0.668016C5.03746 0.668016 5.14217 0.668016 5.54716 0.691226C5.78606 0.694122 6.02267 0.738519 6.24658 0.822466C6.40947 0.88588 6.5574 0.982909 6.68088 1.10732C6.80436 1.23174 6.90066 1.38079 6.96359 1.54492C7.04591 1.77066 7.08995 2.00876 7.09385 2.24923C7.11185 2.65054 7.11646 2.76322 7.11646 3.79161C7.11646 4.81959 7.11646 4.93015 7.09845 5.33358L7.09385 5.33316Z" fill="#1670F8"/>
</svg>
